<?xml version="1.0" encoding="utf-8"?>
<!-- Generator: Adobe Illustrator 25.0.0, SVG Export Plug-In . SVG Version: 6.00 Build 0)  -->
<svg version="1.1" id="Layer_1" xmlns="http://www.w3.org/2000/svg" xmlns:xlink="http://www.w3.org/1999/xlink" x="0px" y="0px"
	 viewBox="0 0 101 102" style="enable-background:new 0 0 101 102;" xml:space="preserve">
<style type="text/css">
	.st0{clip-path:url(#SVGID_2_);}
	.st1{fill:#CCCCFF;}
	.st2{fill:#3939D8;}
	.st3{fill:#6161FF;stroke:#6161FF;stroke-width:0.549;}
	.st4{fill:#EBFFF6;}
	.st5{fill:#0C0CA8;}
	.st6{clip-path:url(#SVGID_4_);}
	.st7{fill:#E6E7E8;}
	.st8{fill:#2C2F38;}
	.st9{fill:#AF8066;}
	.st10{fill:#7F5B53;}
</style>
<g>
	<defs>
		<rect id="SVGID_1_" x="0.2" y="0.4" width="100.6" height="100.6"/>
	</defs>
	<clipPath id="SVGID_2_">
		<use xlink:href="#SVGID_1_"  style="overflow:visible;"/>
	</clipPath>
	<g class="st0">
		<path class="st1" d="M80.3,18.3H21.3c-4.3,0-7.8,3.5-7.8,7.8v53.6c0,4.3,3.5,7.8,7.8,7.8h59.1c4.3,0,7.8-3.5,7.8-7.8V26.1
			C88.1,21.8,84.6,18.3,80.3,18.3z"/>
		<path class="st2" d="M80.9,17.1h-8.5c-0.6,0,8.5,7.4,8.5,11.7v52.2c0,4.3-9.1,5.4-8.5,5.4h8.5c3.6,0,7.5-3.5,7.5-7.8l-1-49.8
			C87.4,24.5,81.5,17.1,80.9,17.1z"/>
		<path class="st3" d="M80.3,88.5L80.3,88.5c2.3,0,4.6-0.9,6.2-2.6c1.7-1.7,2.6-3.9,2.6-6.2v0V26.1v0c0-2.3-0.9-4.6-2.6-6.2
			c-1.7-1.7-3.9-2.6-6.2-2.6h0H21.3h0c-2.3,0-4.6,0.9-6.2,2.6s-2.6,3.9-2.6,6.2v0v53.6v0c0,2.3,0.9,4.6,2.6,6.2
			c1.7,1.7,3.9,2.6,6.2,2.6h0H80.3z M16.5,21.4c1.3-1.3,3-2,4.7-2h59.1c1.8,0,3.5,0.7,4.7,2c1.3,1.3,2,3,2,4.7v53.6
			c0,1.8-0.7,3.5-2,4.7c-1.3,1.3-3,2-4.7,2H21.3c-1.8,0-3.5-0.7-4.7-2c-1.3-1.3-2-3-2-4.7V26.1C14.6,24.3,15.3,22.6,16.5,21.4z"/>
		<path class="st4" d="M21.3,18.3h59.1c2.1,0,4,0.8,5.5,2.3c1.5,1.5,2.3,3.4,2.3,5.5v7.8H13.5v-7.8c0-2.1,0.8-4,2.3-5.5
			C17.2,19.2,19.2,18.3,21.3,18.3z"/>
		<path class="st3" d="M88.9,34.9h0.3v-0.3v-8.5v0c0-2.3-0.9-4.6-2.6-6.2c-1.7-1.7-3.9-2.6-6.2-2.6h0H21.3h0c-2.3,0-4.6,0.9-6.2,2.6
			s-2.6,3.9-2.6,6.2v0v8.5v0.3h0.3H88.9z M87,32.8H14.6v-6.7c0-1.8,0.7-3.5,2-4.7c1.3-1.3,3-2,4.7-2h59.1c1.8,0,3.5,0.7,4.7,2
			c1.3,1.3,2,3,2,4.7V32.8z"/>
		<path class="st4" d="M71.8,29.3c2.6,0,4.7-2.1,4.7-4.7s-2.1-4.7-4.7-4.7s-4.7,2.1-4.7,4.7S69.2,29.3,71.8,29.3z"/>
		<path class="st2" d="M71.8,30c-1.1,0-2.1-0.3-3-0.9c-0.9-0.6-1.6-1.4-2-2.4c-0.4-1-0.5-2.1-0.3-3.1c0.2-1.1,0.7-2,1.5-2.8
			c0.8-0.8,1.7-1.3,2.8-1.5c1.1-0.2,2.1-0.1,3.1,0.3c1,0.4,1.8,1.1,2.4,2c0.6,0.9,0.9,1.9,0.9,3c0,1.4-0.6,2.8-1.6,3.8
			C74.6,29.5,73.2,30,71.8,30z M71.8,20.7c-0.8,0-1.5,0.2-2.2,0.7c-0.6,0.4-1.1,1-1.4,1.7c-0.3,0.7-0.4,1.5-0.2,2.2
			c0.1,0.8,0.5,1.4,1.1,2c0.5,0.5,1.2,0.9,2,1.1s1.5,0.1,2.2-0.2c0.7-0.3,1.3-0.8,1.7-1.4c0.4-0.6,0.7-1.4,0.7-2.2
			c0-1-0.4-2-1.1-2.7C73.8,21.1,72.8,20.7,71.8,20.7z"/>
		<path class="st1" d="M74.1,15.5c0-1.3-1-2.3-2.3-2.3c-1.3,0-2.3,1-2.3,2.3v9.3c0,1.3,1,2.3,2.3,2.3c1.3,0,2.3-1,2.3-2.3V15.5z"/>
		<path class="st2" d="M71.8,27.9c-0.8,0-1.6-0.3-2.2-0.9c-0.6-0.6-0.9-1.4-0.9-2.2v-9.3c0-0.8,0.3-1.6,0.9-2.2
			c0.6-0.6,1.4-0.9,2.2-0.9c0.8,0,1.6,0.3,2.2,0.9c0.6,0.6,0.9,1.4,0.9,2.2v9.3c0,0.8-0.3,1.6-0.9,2.2
			C73.4,27.6,72.6,27.9,71.8,27.9z M71.8,13.9c-0.4,0-0.8,0.2-1.1,0.5s-0.5,0.7-0.5,1.1v9.3c0,0.4,0.2,0.8,0.5,1.1
			c0.3,0.3,0.7,0.5,1.1,0.5c0.4,0,0.8-0.2,1.1-0.5c0.3-0.3,0.5-0.7,0.5-1.1v-9.3c0-0.4-0.2-0.8-0.5-1.1
			C72.6,14.1,72.2,13.9,71.8,13.9z"/>
		<path class="st4" d="M57.8,29.3c2.6,0,4.7-2.1,4.7-4.7s-2.1-4.7-4.7-4.7s-4.7,2.1-4.7,4.7S55.2,29.3,57.8,29.3z"/>
		<path class="st2" d="M57.8,30c-1.1,0-2.1-0.3-3-0.9c-0.9-0.6-1.6-1.4-2-2.4c-0.4-1-0.5-2.1-0.3-3.1c0.2-1.1,0.7-2,1.5-2.8
			c0.8-0.8,1.7-1.3,2.8-1.5c1.1-0.2,2.1-0.1,3.1,0.3c1,0.4,1.8,1.1,2.4,2c0.6,0.9,0.9,1.9,0.9,3c0,1.4-0.6,2.8-1.6,3.8
			C60.6,29.5,59.2,30,57.8,30z M57.8,20.7c-0.8,0-1.5,0.2-2.2,0.7c-0.6,0.4-1.1,1-1.4,1.7c-0.3,0.7-0.4,1.5-0.2,2.2
			c0.1,0.8,0.5,1.4,1.1,2c0.5,0.5,1.2,0.9,2,1.1s1.5,0.1,2.2-0.2c0.7-0.3,1.3-0.8,1.7-1.4c0.4-0.6,0.7-1.4,0.7-2.2
			c0-1-0.4-2-1.1-2.7C59.8,21.1,58.8,20.7,57.8,20.7z"/>
		<path class="st1" d="M60.1,15.5c0-1.3-1-2.3-2.3-2.3c-1.3,0-2.3,1-2.3,2.3v9.3c0,1.3,1,2.3,2.3,2.3c1.3,0,2.3-1,2.3-2.3V15.5z"/>
		<path class="st2" d="M57.8,27.9c-0.8,0-1.6-0.3-2.2-0.9c-0.6-0.6-0.9-1.4-0.9-2.2v-9.3c0-0.8,0.3-1.6,0.9-2.2
			c0.6-0.6,1.4-0.9,2.2-0.9c0.8,0,1.6,0.3,2.2,0.9c0.6,0.6,0.9,1.4,0.9,2.2v9.3c0,0.8-0.3,1.6-0.9,2.2
			C59.4,27.6,58.6,27.9,57.8,27.9z M57.8,13.9c-0.4,0-0.8,0.2-1.1,0.5c-0.3,0.3-0.5,0.7-0.5,1.1v9.3c0,0.4,0.2,0.8,0.5,1.1
			c0.3,0.3,0.7,0.5,1.1,0.5c0.4,0,0.8-0.2,1.1-0.5c0.3-0.3,0.5-0.7,0.5-1.1v-9.3c0-0.4-0.2-0.8-0.5-1.1
			C58.6,14.1,58.2,13.9,57.8,13.9z"/>
		<path class="st4" d="M43.8,29.3c2.6,0,4.7-2.1,4.7-4.7s-2.1-4.7-4.7-4.7s-4.7,2.1-4.7,4.7S41.2,29.3,43.8,29.3z"/>
		<path class="st2" d="M43.8,30c-1.1,0-2.1-0.3-3-0.9c-0.9-0.6-1.6-1.4-2-2.4c-0.4-1-0.5-2.1-0.3-3.1c0.2-1.1,0.7-2,1.5-2.8
			c0.8-0.8,1.7-1.3,2.8-1.5c1.1-0.2,2.1-0.1,3.1,0.3c1,0.4,1.8,1.1,2.4,2c0.6,0.9,0.9,1.9,0.9,3c0,1.4-0.6,2.8-1.6,3.8
			C46.6,29.5,45.2,30,43.8,30z M43.8,20.7c-0.8,0-1.5,0.2-2.2,0.7c-0.6,0.4-1.1,1-1.4,1.7c-0.3,0.7-0.4,1.5-0.2,2.2
			c0.1,0.8,0.5,1.4,1.1,2s1.2,0.9,2,1.1c0.8,0.1,1.5,0.1,2.2-0.2c0.7-0.3,1.3-0.8,1.7-1.4c0.4-0.6,0.7-1.4,0.7-2.2
			c0-1-0.4-2-1.1-2.7C45.8,21.1,44.8,20.7,43.8,20.7z"/>
		<path class="st1" d="M46.1,15.5c0-1.3-1-2.3-2.3-2.3c-1.3,0-2.3,1-2.3,2.3v9.3c0,1.3,1,2.3,2.3,2.3c1.3,0,2.3-1,2.3-2.3V15.5z"/>
		<path class="st2" d="M43.8,27.9c-0.8,0-1.6-0.3-2.2-0.9c-0.6-0.6-0.9-1.4-0.9-2.2v-9.3c0-0.8,0.3-1.6,0.9-2.2
			c0.6-0.6,1.4-0.9,2.2-0.9c0.8,0,1.6,0.3,2.2,0.9c0.6,0.6,0.9,1.4,0.9,2.2v9.3c0,0.8-0.3,1.6-0.9,2.2
			C45.4,27.6,44.6,27.9,43.8,27.9z M43.8,13.9c-0.4,0-0.8,0.2-1.1,0.5c-0.3,0.3-0.5,0.7-0.5,1.1v9.3c0,0.4,0.2,0.8,0.5,1.1
			c0.3,0.3,0.7,0.5,1.1,0.5c0.4,0,0.8-0.2,1.1-0.5c0.3-0.3,0.5-0.7,0.5-1.1v-9.3c0-0.4-0.2-0.8-0.5-1.1
			C44.6,14.1,44.2,13.9,43.8,13.9z"/>
		<path class="st4" d="M29.8,29.3c2.6,0,4.7-2.1,4.7-4.7s-2.1-4.7-4.7-4.7c-2.6,0-4.7,2.1-4.7,4.7S27.2,29.3,29.8,29.3z"/>
		<path class="st2" d="M29.8,30c-1.1,0-2.1-0.3-3-0.9c-0.9-0.6-1.6-1.4-2-2.4c-0.4-1-0.5-2.1-0.3-3.1c0.2-1.1,0.7-2,1.5-2.8
			c0.8-0.8,1.7-1.3,2.8-1.5c1.1-0.2,2.1-0.1,3.1,0.3c1,0.4,1.8,1.1,2.4,2c0.6,0.9,0.9,1.9,0.9,3c0,1.4-0.6,2.8-1.6,3.8
			C32.6,29.5,31.2,30,29.8,30z M29.8,20.7c-0.8,0-1.5,0.2-2.2,0.7c-0.6,0.4-1.1,1-1.4,1.7c-0.3,0.7-0.4,1.5-0.2,2.2
			c0.1,0.8,0.5,1.4,1.1,2s1.2,0.9,2,1.1c0.8,0.1,1.5,0.1,2.2-0.2c0.7-0.3,1.3-0.8,1.7-1.4c0.4-0.6,0.7-1.4,0.7-2.2
			c0-1-0.4-2-1.1-2.7C31.8,21.1,30.8,20.7,29.8,20.7z"/>
		<path class="st1" d="M32.1,15.5c0-1.3-1-2.3-2.3-2.3c-1.3,0-2.3,1-2.3,2.3v9.3c0,1.3,1,2.3,2.3,2.3c1.3,0,2.3-1,2.3-2.3V15.5z"/>
		<path class="st2" d="M29.8,27.9c-0.8,0-1.6-0.3-2.2-0.9c-0.6-0.6-0.9-1.4-0.9-2.2v-9.3c0-0.8,0.3-1.6,0.9-2.2
			c0.6-0.6,1.4-0.9,2.2-0.9s1.6,0.3,2.2,0.9c0.6,0.6,0.9,1.4,0.9,2.2v9.3c0,0.8-0.3,1.6-0.9,2.2C31.4,27.6,30.6,27.9,29.8,27.9z
			 M29.8,13.9c-0.4,0-0.8,0.2-1.1,0.5c-0.3,0.3-0.5,0.7-0.5,1.1v9.3c0,0.4,0.2,0.8,0.5,1.1c0.3,0.3,0.7,0.5,1.1,0.5
			c0.4,0,0.8-0.2,1.1-0.5c0.3-0.3,0.5-0.7,0.5-1.1v-9.3c0-0.4-0.2-0.8-0.5-1.1C30.6,14.1,30.2,13.9,29.8,13.9z"/>
		<path class="st5" d="M45.9,68.8v-5.4l12.4-17.7h7.5v17.3h3.2v5.8h-3.2v5.1H59v-5.1H45.9z M59.5,53.1l-6.6,9.9h6.6V53.1z"/>
		<path class="st5" d="M30.7,51.6v-6.2h10.8v28.5h-7V51.6H30.7z"/>
		<g>
			<defs>
				
					<rect id="SVGID_3_" x="66.5" y="64.3" transform="matrix(0.2066 -0.9784 0.9784 0.2066 -12.6318 140.6057)" width="27.7" height="27.7"/>
			</defs>
			<clipPath id="SVGID_4_">
				<use xlink:href="#SVGID_3_"  style="overflow:visible;"/>
			</clipPath>
			<g class="st6">
				<path class="st7" d="M95.5,72.3L94.2,75l-1.4,3l-1.4,3l-1,2.2c-0.1,0.2-0.2,0.3-0.4,0.3c-0.2,0-0.3-0.1-0.4-0.2
					c-0.5-0.8-1.2-1.4-2-1.8c-1-0.5-2.1-0.8-3.2-0.9c-1.2-0.1-2.4-0.1-3.5-0.1c-1.2,0-2.4,0-3.5-0.1c-1.1-0.1-2.2-0.4-3.2-0.9l0,0
					c-1-0.6-1.9-1.5-2.4-2.5l1.4-3l1.4-3l1.4-3l1.4-3c0.5,1.1,1.4,2,2.4,2.5c1,0.5,2.1,0.8,3.2,0.9c1.2,0.1,2.4,0.1,3.5,0.1
					c1.2,0,2.4,0,3.6,0.1c1.1,0.1,2.2,0.4,3.2,0.9c1,0.5,1.8,1.3,2.3,2.3C95.5,72,95.5,72.1,95.5,72.3z"/>
				<path class="st8" d="M78.3,70.4c-0.5,1-0.9,2-1.4,3c-1-0.6-1.9-1.5-2.4-2.5l1.4-3C76.4,68.9,77.3,69.8,78.3,70.4z"/>
				<path class="st8" d="M75.6,76.4c-0.1,0.2-0.2,0.4-0.3,0.6c-0.4,0.8-0.7,1.6-1.1,2.4c-1-0.6-1.9-1.5-2.4-2.5l1.4-3
					C73.7,74.9,74.5,75.8,75.6,76.4z"/>
				<path class="st8" d="M82.9,68.3c-0.5,1-0.9,2-1.4,3c-1.1-0.1-2.2-0.4-3.2-0.9c0.4-1,0.9-2,1.4-3C80.7,67.9,81.7,68.3,82.9,68.3z
					"/>
				<path class="st8" d="M82.3,77.4c-0.1,0.2-0.2,0.4-0.3,0.6c-0.4,0.8-0.7,1.6-1.1,2.4c-1.2,0-2.4,0-3.5-0.1
					c0.4-0.8,0.7-1.6,1.1-2.4c0.1-0.2,0.2-0.4,0.3-0.6C79.9,77.4,81.1,77.4,82.3,77.4z"/>
				<path class="st8" d="M89.9,68.6l-1.4,3c-1.2-0.1-2.4-0.1-3.6-0.1c0.5-1,0.9-2,1.4-3C87.6,68.4,88.8,68.5,89.9,68.6z"/>
				<path class="st8" d="M89,78.4c-0.1,0.2-0.2,0.4-0.3,0.6c-0.4,0.8-0.7,1.6-1.1,2.4c-1-0.5-2.1-0.8-3.2-0.9
					c0.4-0.8,0.7-1.6,1.1-2.4c0.1-0.2,0.2-0.4,0.3-0.6C87,77.6,88.1,77.9,89,78.4z"/>
				<path class="st8" d="M92.8,78l-1.4,3c-0.5-1.1-1.4-2-2.4-2.5c0.5-1,0.9-2,1.4-3C91.4,76,92.3,76.9,92.8,78z"/>
				<path class="st8" d="M95.5,72.3L94.2,75c-0.5-1.1-1.4-2-2.4-2.5c0.5-1,0.9-2,1.4-3c1,0.5,1.8,1.3,2.3,2.3
					C95.5,72,95.5,72.1,95.5,72.3z"/>
				<path class="st8" d="M91.8,72.5l-1.4,3c-1-0.5-2.1-0.8-3.2-0.9l1.4-3C89.7,71.6,90.8,72,91.8,72.5z"/>
				<path class="st8" d="M80.1,74.3l-1.4,3c-1.1-0.1-2.2-0.4-3.2-0.9c0.5-1,0.9-2,1.4-3C77.9,73.9,79,74.2,80.1,74.3z"/>
				<path class="st8" d="M85,71.4c-0.5,1-0.9,2-1.4,3c-1.2,0-2.4,0-3.5-0.1l1.4-3C82.7,71.4,83.9,71.5,85,71.4z"/>
				<path class="st8" d="M87.2,74.5c-0.5,1-0.9,2-1.4,3c-1.2-0.1-2.4-0.1-3.5-0.1c0.5-1,0.9-2,1.4-3C84.9,74.4,86,74.4,87.2,74.5z"
					/>
				<path class="st9" d="M77.8,64.7c0,0.1-0.1,0.2-0.1,0.3L67,88.4c-0.1,0.3-0.4,0.6-0.7,0.7c-0.3,0.1-0.7,0.1-1,0l0,0
					c-0.6-0.3-0.9-1.1-0.6-1.7l10.7-23.4c0.3-0.7,1.1-0.9,1.7-0.6l0,0C77.6,63.5,77.9,64.1,77.8,64.7z"/>
				<path class="st10" d="M77.8,64.7c0,0.1-0.1,0.2-0.1,0.3L67,88.4c-0.1,0.3-0.4,0.6-0.7,0.7c-0.3,0.1-0.7,0.1-1,0l0,0L77,63.3
					C77.6,63.5,77.9,64.1,77.8,64.7z"/>
			</g>
		</g>
	</g>
</g>
</svg>
