<?xml version="1.0" encoding="utf-8"?>
<!-- Generator: Adobe Illustrator 25.0.0, SVG Export Plug-In . SVG Version: 6.00 Build 0)  -->
<svg version="1.1" xmlns="http://www.w3.org/2000/svg" xmlns:xlink="http://www.w3.org/1999/xlink" x="0px" y="0px"
	 viewBox="0 0 573 551" style="enable-background:new 0 0 573 551;" xml:space="preserve">
<style type="text/css">
	.st0{display:none;}
	.st1{display:inline;}
	.st2{fill:none;stroke:#FDFEFE;stroke-width:15;stroke-linecap:round;stroke-linejoin:round;stroke-miterlimit:10;}
	.st3{fill:#FFFFFF;}
</style>
<g id="Layer_1" class="st0">
	<g class="st1">
		<path class="st2" d="M534.5,373.08V499c0,16.57-13.43,30-30,30h-437c-16.57,0-30-13.43-30-30V62c0-16.57,13.43-30,30-30h437
			c16.57,0,30,13.43,30,30v276.08 M161.1,122h373.4 M37.5,122h88.6"/>
		<circle class="st2" cx="82.5" cy="77" r="15"/>
		<circle class="st2" cx="142.5" cy="77" r="15"/>
		<circle class="st2" cx="202.5" cy="77" r="15"/>
		<path class="st2" d="M225.72,216.17l20.21-53.08c0.41-1.01,1.84-1.01,2.26,0l20.03,53.08 M232.03,202.95h30 M360.27,162.33v53.84
			 M389.23,163.01l-27.24,25.04l29.15,28.12 M331.41,167.86c0,0-9.66-8.12-21.05-4.69c-10.46,3.15-11.92,15.21-4.36,20.15
			c0,0,7.43,3.31,15.66,6.35c19.83,7.31,11.29,26.49-4.67,26.49c-7.99,0-14.7-3.5-18.76-7.98 M180.86,162.33h29.73 M195.66,164.05
			v52.12 M200.74,257.07H474.5 M200.74,287.07H399.5 M141.1,310.67h-33.6c-5.52,0-10-4.48-10-10v-33.61c0-5.52,4.48-10,10-10h33.6
			c5.52,0,10,4.48,10,10v33.61C151.1,306.19,146.63,310.67,141.1,310.67z M200.74,347.07H474.5 M200.74,377.07H399.5 M141.1,400.67
			h-33.6c-5.52,0-10-4.48-10-10v-33.61c0-5.52,4.48-10,10-10h33.6c5.52,0,10,4.48,10,10v33.61
			C151.1,396.19,146.63,400.67,141.1,400.67z M200.74,437.07H474.5 M200.74,467.07H399.5 M141.1,490.67h-33.6c-5.52,0-10-4.48-10-10
			v-33.61c0-5.52,4.48-10,10-10h33.6c5.52,0,10,4.48,10,10v33.61C151.1,486.19,146.63,490.67,141.1,490.67z"/>
	</g>
</g>
<g id="Layer_2">
	<g>
		<g>
			<path class="st3" d="M96.34,202.84l64-64l11.32,11.31l-64,64L96.34,202.84z"/>
			<path class="st3" d="M414,536.5H62c-4.42,0-8-3.58-8-8v-432c0-2.12,0.84-4.16,2.34-5.66l64-64c1.5-1.5,3.53-2.34,5.66-2.34h288
				c4.42,0,8,3.58,8,8v496C422,532.92,418.42,536.5,414,536.5z M70,520.5h336v-480H129.31L70,99.81V520.5z"/>
			<path class="st3" d="M126,104.5H62v-16h56v-56h16v64C134,100.92,130.42,104.5,126,104.5z M166,216.5h-64c-4.42,0-8-3.58-8-8v-64
				c0-4.42,3.58-8,8-8h64c4.42,0,8,3.58,8,8v64C174,212.92,170.42,216.5,166,216.5z M110,200.5h48v-48h-48V200.5z M206,152.5h176v16
				H206V152.5z M190,184.5h192v16H190V184.5z M166,320.5h-64c-4.42,0-8-3.58-8-8v-64c0-4.42,3.58-8,8-8h64c4.42,0,8,3.58,8,8v64
				C174,316.92,170.42,320.5,166,320.5z M110,304.5h48v-48h-48V304.5z M206,256.5h176v16H206V256.5z M190,288.5h192v16H190V288.5z
				 M166,424.5h-64c-4.42,0-8-3.58-8-8v-64c0-4.42,3.58-8,8-8h64c4.42,0,8,3.58,8,8v64C174,420.92,170.42,424.5,166,424.5z
				 M110,408.5h48v-48h-48V408.5z M206,360.5h176v16H206V360.5z M190,392.5h192v16H190V392.5z M510,536.5h-48c-4.42,0-8-3.58-8-8
				v-304c0-4.42,3.58-8,8-8h48c4.42,0,8,3.58,8,8v304C518,532.92,514.42,536.5,510,536.5z M470,520.5h32v-288h-32V520.5z"/>
			<path class="st3" d="M462,440.5h48v16h-48V440.5z M502.5,227.31L486,183.28l-16.5,44l-14.99-5.6l24-64
				c1.54-4.14,6.15-6.24,10.29-4.7c2.17,0.81,3.89,2.53,4.7,4.7l24,64L502.5,227.31z"/>
		</g>
	</g>
</g>
</svg>
