<?xml version="1.0" encoding="utf-8"?>
<!-- Generator: Adobe Illustrator 25.0.0, SVG Export Plug-In . SVG Version: 6.00 Build 0)  -->
<svg version="1.1" id="Layer_1" xmlns="http://www.w3.org/2000/svg" xmlns:xlink="http://www.w3.org/1999/xlink" x="0px" y="0px"
	 viewBox="0 0 101 102" style="enable-background:new 0 0 101 102;" xml:space="preserve">
<style type="text/css">
	.st0{clip-path:url(#SVGID_2_);}
	.st1{fill:#9D9DF9;}
	.st2{fill:#FFE8D3;}
	.st3{fill:#F3CDA9;}
	.st4{fill:#9D9DFC;}
	.st5{fill:#4C4CE0;}
	.st6{fill:#2626BC;}
	.st7{fill:#3939D8;}
	.st8{fill:#FFFFFF;}
	.st9{fill:none;stroke:#A0A0A0;}
	.st10{clip-path:url(#SVGID_4_);}
	.st11{clip-path:url(#SVGID_6_);fill:#2626BC;}
</style>
<g>
	<g>
		<defs>
			<rect id="SVGID_1_" x="12.3" y="9" width="80.5" height="80.5"/>
		</defs>
		<clipPath id="SVGID_2_">
			<use xlink:href="#SVGID_1_"  style="overflow:visible;"/>
		</clipPath>
		<g class="st0">
			<path class="st1" d="M24.2,31.1v14.1c0,4.6,3.7,8.3,8.3,8.3h17c4.6,0,8.3-3.7,8.3-8.3V31.1c0-9.3-7.5-16.8-16.8-16.8
				C31.7,14.3,24.2,21.8,24.2,31.1z"/>
			<path class="st2" d="M51.2,56.6c-2-0.5-3.3-2.3-3.3-4.4v-9.6H34.2v9.6c0,2-1.4,3.8-3.3,4.4c-2,0.5-4.6,1.3-7.2,2
				c0,6.1,10,12.6,17.4,12.6s17.4-7.1,17.4-12.6L51.2,56.6z"/>
			<path class="st3" d="M41.3,55.5c0,2,1.4,3.8,3.3,4.4c2.3,0.6,8.4,2.3,10.7,2.9c0.4,0.1,0.8,0.2,1.1,0.4c1.2-1.5,1.9-3.1,1.9-4.6
				l-7.2-2c-2-0.5-3.3-2.3-3.3-4.4v-9.6h-6.6L41.3,55.5z"/>
			<path class="st4" d="M46.3,29.4h11.5v9.3H46.3V29.4z"/>
			<path class="st4" d="M24.2,29.4h10.5v9.3H24.2V29.4z"/>
			<path class="st2" d="M28.8,29.4v8.3c0,8.1,8.5,12.6,12.1,12.6c3.8,0,12.2-4.6,12.2-12.6V22.1H35.3v0.7
				C35.3,26.4,32.4,29.4,28.8,29.4z"/>
			<path class="st3" d="M46.8,22.1v15.6c0,6.2-5,10.3-9,11.9c1.2,0.5,2.3,0.7,3.2,0.8c3.7-0.1,12.1-4.7,12.1-12.7V22.1H46.8z"/>
			<path class="st5" d="M41,14.3c-2.2,0-4.3,0.4-6.2,1.2c-0.4,0.6-0.6,1.4-0.6,2.2c0,6.2,5,11.2,11.2,11.7h12.3
				C56.8,20.9,49.7,14.3,41,14.3z"/>
			<path class="st4" d="M24.2,38.7v-7.6c0-4.6,1.9-9,5.3-12.2c3-2.8,7-4.5,11.1-4.6c9.4-0.2,17.2,7.4,17.2,16.8v7.6c2.2,0,4-1.8,4-4
				v-3.6c0-11.5-9.3-20.8-20.8-20.8c-5.6,0-10.8,2.2-14.7,6.1s-6.1,9.2-6.1,14.7v3.6C20.1,36.8,22,38.7,24.2,38.7z"/>
			<path class="st4" d="M68.5,68.2c0-4.1-2.7-7.6-6.6-8.7l-3.5-1c-3.5,6-10,10-17.4,10s-13.9-4-17.4-10c-1.2,0.3-2.4,0.7-3.5,1
				c-3.9,1.1-6.6,4.7-6.6,8.7v17.1c0,1.6,1.3,2.8,2.8,2.8h49.4c1.6,0,2.8-1.3,2.8-2.8V68.2z"/>
			<path class="st4" d="M68.5,68.2c0-4.1-2.7-7.6-6.6-8.7l-3.5-1c-0.9,1.5-2,2.9-3.2,4.1h0.1c3.9,1.1,6.6,4.6,6.6,8.7v16.8h3.7
				c1.6,0,2.8-1.3,2.8-2.8L68.5,68.2z"/>
			<path class="st4" d="M77.6,86.8H42.1V66.2c0-1.2,1-2.2,2.2-2.2h31.1c1.2,0,2.2,1,2.2,2.2V86.8L77.6,86.8z"/>
			<path class="st6" d="M75.4,64.1H69c1.2,0,2.2,1,2.2,2.2v20.6h6.4V66.2C77.6,65,76.6,64.1,75.4,64.1z"/>
			<path class="st4" d="M78.4,88.3H41.2c-1.2,0-2.2-1-2.2-2.2s1-2.2,2.2-2.2h37.2c1.2,0,2.2,1,2.2,2.2S79.6,88.3,78.4,88.3z"/>
			<path class="st4" d="M36.2,46.6h-4.7c-1.2,0-2.2-1-2.2-2.2s1-2.2,2.2-2.2h4.7c1.2,0,2.2,1,2.2,2.2S37.4,46.6,36.2,46.6z"/>
			<path class="st7" d="M78.7,82.6V66.2c0-1.9-1.5-3.4-3.4-3.4h-7.2c-1.4-2.2-3.5-3.8-6-4.5c-2.3-0.6-8.4-2.3-10.7-2.9
				c-0.6-0.2-1.1-0.4-1.4-0.8c5-0.3,8.9-4.4,8.9-9.5v-5.5c0.9-0.2,1.8-0.7,2.5-1.4c1-1,1.5-2.3,1.5-3.7v-3.6c0-12.1-9.9-22-22-22
				c-12.2,0-22,9.8-22,22c0,13.8,0,10.9,0,11.3c0,1.7,1.4,3.1,3.1,3.1h1c0.1,4.9,4.1,8.9,9,9.2c-0.4,0.4-0.9,0.7-1.5,0.8
				c-2.2,0.6-8.9,2.5-10.7,3c-4.4,1.4-7.5,5.4-7.5,10v17.1c0,2.2,1.8,4,4,4l0,0c42.9,0-50.9,0,62.1,0c1.9,0,3.4-1.5,3.4-3.4
				C81.8,84.3,80.5,82.8,78.7,82.6z M65.2,62.9h-8.6c0.8-0.9,1.6-1.9,2.3-2.9l2.7,0.7C63,61.1,64.2,61.8,65.2,62.9z M25.4,43.1v-3.3
				h2.5c0.2,0.9,0.4,1.8,0.8,2.7c-0.1,0.2-0.2,0.4-0.3,0.6H25.4L25.4,43.1z M54.3,30.6h2.3c0,0.6,0,0.3,0,6.9h-2.3V30.6z M45.4,28.2
				c-5.6-0.5-10-5.1-10-10.5c0-0.4,0.1-0.9,0.3-1.2c1.7-0.6,3.5-0.9,5.3-0.9c7.6,0,14,5.5,15.3,12.7C53.6,28.2,46.4,28.2,45.4,28.2z
				 M33,17.7c0,1.8,0.4,3.6,1.2,5.2c0,2.9-2.4,5.3-5.3,5.3l0,0h-3.2C26.5,23.6,29.3,19.9,33,17.7z M25.4,37.5v-6.4
				c0-0.2,0-0.4,0-0.5h2.3v6.9H25.4L25.4,37.5z M31.5,43.3h4.7c0.6,0,1,0.5,1,1c0,0.6-0.5,1-1,1h-4.7c-0.6,0-1-0.5-1-1
				C30.4,43.8,30.9,43.3,31.5,43.3z M39.6,44.4c0-1.9-1.5-3.4-3.4-3.4h-4.7c-0.3,0-0.6,0-0.8,0.1C30.2,40,30,38.9,30,37.7v-7.2
				c2.7-0.4,5-2.3,6-4.7c0.2,0.3,0.4,0.5,0.7,0.7c2.3,2.4,5.4,3.8,8.7,4.1h0.1l0,0h6.6v7.1c0,3.9-2.2,6.8-4.7,8.8
				c0,0-3.3,2.6-6.2,2.7c-1.1,0-2.7-0.5-4.3-1.5C38.3,47.5,39.6,46.1,39.6,44.4z M49.5,52.3H49c0,0,0,0,0-0.1V48
				c2.6-2.1,4.5-4.9,5.1-8.2h2.5v5.3C56.6,49.1,53.4,52.3,49.5,52.3z M41,11.4c10.8,0,19.6,8.8,19.6,19.6v3.6c0,0.8-0.3,1.5-0.8,2
				c-0.2,0.2-0.5,0.4-0.8,0.6v-6.1c0-0.6,0-1.2-0.1-1.8l0,0c-0.9-9-8.6-16.1-17.9-16.1c-9.9,0-18,8-18,18v6.1
				c-1-0.5-1.7-1.4-1.7-2.6v-3.6C21.3,20.2,30.1,11.4,41,11.4z M21.3,42.3v-3.4c0.5,0.3,1.1,0.6,1.7,0.7V43h-0.9
				C21.7,43.1,21.3,42.8,21.3,42.3z M32.5,52.3c-3.8,0-7-3-7.1-6.8h2.9c0.5,1.3,1.7,2.3,3.2,2.3h1.1c0.1,0.1,0.3,0.2,0.4,0.3v4.2
				l0,0H32.5z M31.1,57.8c2.5-0.7,4.2-2.9,4.2-5.5v-2.6c1.9,1.1,4,1.8,5.6,1.8l0,0l0,0c1.4,0,3.5-0.6,5.6-1.9v2.6
				c0,2.6,1.7,4.8,4.2,5.5l5.7,1.6c-0.9,1.3-2,2.5-3.3,3.6h-9c-1.9,0-3.4,1.5-3.4,3.4v1.2c-6.2,0-11.9-3.1-15.5-8.1L31.1,57.8z
				 M16.3,87.1L16.3,87.1c-0.9,0-1.6-0.7-1.6-1.6V68.4c0-3.5,2.4-6.6,5.8-7.6l2.6-0.7c1.8,2.8,4.3,5.2,7.2,6.9
				c3.2,1.9,6.9,2.9,10.7,2.9v2.8c0,0.7,0.5,1.2,1.2,1.2s1.2-0.5,1.2-1.2v-6.4c0-0.6,0.4-1,1-1h31.1c0.6,0,1,0.4,1,1v16.4H43.3v-4.4
				c0-0.7-0.5-1.2-1.2-1.2s-1.2,0.5-1.2,1.2v4.4c-1.7,0.2-3.1,1.6-3.1,3.4c0,0.4,0.1,0.7,0.2,1H24v-6.6c0-0.7-0.5-1.2-1.2-1.2
				s-1.2,0.5-1.2,1.2v6.6H16.3z M78.4,87.1H41.2h-0.1c0,0,0,0-0.1,0c-0.5-0.1-0.9-0.5-0.9-1c0-0.6,0.5-1.1,1.1-1.1h37.2
				c0.6,0,1.1,0.5,1.1,1.1C79.4,86.6,79,87.1,78.4,87.1z"/>
			<g>
				<circle class="st8" cx="76.5" cy="47.2" r="14.2"/>
				<circle class="st9" cx="76.5" cy="47.2" r="13.7"/>
			</g>
			<g>
				<g>
					<defs>
						
							<rect id="SVGID_3_" x="76.3" y="27" transform="matrix(0.3175 -0.9483 0.9483 0.3175 24.7889 101.2314)" width="12.8" height="12.8"/>
					</defs>
					<clipPath id="SVGID_4_">
						<use xlink:href="#SVGID_3_"  style="overflow:visible;"/>
					</clipPath>
					<g class="st10">
						<path class="st6" d="M87.2,32.2l1-0.5l-0.5-1l-1,0.5c-0.5-0.7-1.3-1.3-2.1-1.7l0.3-1l1,0.3l0.3-1l-3-1l-0.3,1l1,0.3l-0.3,1
							c-0.9-0.2-1.8-0.2-2.7,0.1l-0.5-1l-1,0.5l0.5,1c-0.9,0.5-1.7,1.2-2.2,2.2c-0.5,0.9-0.7,2-0.6,3s0.5,2,1.1,2.9
							c0.6,0.8,1.5,1.4,2.5,1.8c1,0.3,2.1,0.4,3.1,0.1c1-0.3,1.9-0.8,2.6-1.6s1.1-1.7,1.3-2.8C87.8,34.2,87.7,33.1,87.2,32.2z
							 M81,38.5c-0.8-0.3-1.5-0.8-2-1.4c-0.5-0.7-0.8-1.5-0.9-2.3s0.1-1.7,0.6-2.4c0.4-0.7,1-1.3,1.8-1.7s1.6-0.5,2.4-0.4
							s1.6,0.5,2.3,1c0.6,0.6,1.1,1.3,1.3,2.1c0.2,0.8,0.2,1.7-0.1,2.5c-0.4,1.1-1.1,2-2.1,2.5C83.3,38.7,82.1,38.8,81,38.5z"/>
						<path class="st6" d="M83.4,31.4l-1,3l-3-1c-0.2,0.6-0.2,1.2-0.1,1.9c0.2,0.6,0.5,1.2,1,1.6c0.5,0.4,1.1,0.7,1.7,0.8
							s1.3,0,1.8-0.3c0.6-0.3,1-0.7,1.4-1.3c0.3-0.6,0.5-1.2,0.4-1.8c0-0.6-0.3-1.2-0.7-1.7C84.5,32,84,31.6,83.4,31.4z"/>
					</g>
				</g>
			</g>
			<path class="st6" d="M69,43.6v-2h3.8v11.5h-2.3v-9.5H69z M74.8,47.2c0-1.8,0.3-3.3,1-4.3s1.8-1.5,3.3-1.5s2.6,0.5,3.3,1.5
				c0.7,1,1,2.5,1,4.3s-0.3,3.3-1,4.3s-1.7,1.6-3.3,1.6c-1.5,0-2.6-0.5-3.3-1.6S74.8,49,74.8,47.2z M81.2,47.2c0-0.8-0.1-1.4-0.2-2
				c-0.1-0.5-0.3-1-0.6-1.3c-0.3-0.3-0.7-0.5-1.3-0.5c-0.6,0-1,0.2-1.3,0.5s-0.5,0.8-0.6,1.3s-0.1,1.2-0.1,2s0,1.5,0.1,2
				s0.3,1,0.6,1.3c0.3,0.3,0.8,0.5,1.3,0.5c0.6,0,1-0.2,1.3-0.5s0.5-0.8,0.6-1.3C81.1,48.6,81.2,48,81.2,47.2z"/>
		</g>
	</g>
	<g>
		<defs>
			<rect id="SVGID_5_" x="12.3" y="9" width="80.5" height="80.5"/>
		</defs>
		<clipPath id="SVGID_6_">
			<use xlink:href="#SVGID_5_"  style="overflow:visible;"/>
		</clipPath>
		<path class="st11" d="M40.1,43.7h-5.9c-0.4,0-0.7,0.3-0.7,0.7l0,0c0,0.4,0.3,0.7,0.7,0.7h5.9c0.4,0,0.7-0.3,0.7-0.7l0,0
			C40.7,44,40.4,43.7,40.1,43.7z"/>
	</g>
</g>
</svg>
