<?xml version="1.0" encoding="utf-8"?>
<!-- Generator: Adobe Illustrator 25.0.0, SVG Export Plug-In . SVG Version: 6.00 Build 0)  -->
<svg version="1.1" id="Layer_1" xmlns="http://www.w3.org/2000/svg" xmlns:xlink="http://www.w3.org/1999/xlink" x="0px" y="0px"
	 viewBox="0 0 102 102" style="enable-background:new 0 0 102 102;" xml:space="preserve">
<style type="text/css">
	.st0{clip-path:url(#SVGID_2_);}
	.st1{fill:#CCCCFF;}
	.st2{fill:#B1B1EF;}
	.st3{fill:#6161FF;}
	.st4{fill:#3939D8;}
	.st5{fill:#48ADD9;}
	.st6{fill:#F7A116;}
	.st7{fill:#2626BC;}
	.st8{fill:#C9C9D1;}
</style>
<g>
	<g>
		<defs>
			<rect id="SVGID_1_" x="9.9" y="5.9" width="84" height="84"/>
		</defs>
		<clipPath id="SVGID_2_">
			<use xlink:href="#SVGID_1_"  style="overflow:visible;"/>
		</clipPath>
		<g class="st0">
			<path class="st1" d="M84.9,88.5H17.3c-3.3,0-6-2.6-6-5.7V32.5h73.5L84.9,88.5L84.9,88.5z"/>
			<path class="st2" d="M22.5,80.1V33.9h-2.8v43.4h-2.8c-3.1,0-5.6,2.5-5.6,5.6c0,0.7,0.1,1.3,0.4,2c0.9-2.9,3.6-4.9,6.6-4.8H22.5z"
				/>
			<path class="st2" d="M84.9,36.7L28.1,88.5h56.7L84.9,36.7L84.9,36.7z"/>
			<path class="st3" d="M19.7,77.3h-2.8c-3.1,0-5.6,2.5-5.6,5.6V28.3c0-3.1,2.5-5.6,5.6-5.6h2.8V77.3z"/>
			<path class="st2" d="M25.3,40.9h16.8v11.2H25.3V40.9z"/>
			<path class="st2" d="M25.3,66.1h16.8v11.2H25.3V66.1z"/>
			<path class="st1" d="M56.1,40.9h16.8v11.2H56.1V40.9z"/>
			<path class="st2" d="M56.1,66.1h16.8v11.2H56.1V66.1z"/>
			<path class="st4" d="M42.1,45.1h14v2.8h-14V45.1z"/>
			<path class="st4" d="M63.1,50.2h2.8v15.9h-2.8C63.1,66.1,63.1,50.2,63.1,50.2z"/>
			<path class="st5" d="M42.1,70.3h14v2.8h-14V70.3z"/>
			<path class="st3" d="M92.8,38.7v-8.4h-6.1c-0.4-1.5-1-3-1.8-4.3l4.4-4.3l-6-5.9L79,20.2c-1.4-0.8-2.8-1.4-4.3-1.8v-6.1h-8.4v6.1
				c-1.5,0.4-3,1-4.3,1.8l-4.3-4.4l-6,5.9l4.4,4.3c-0.8,1.4-1.4,2.8-1.8,4.3H48v8.4h6.1c0.4,1.5,1,3,1.8,4.3l-4.4,4.3l3.9,3.9l2,2
				l4.3-4.3c1.4,0.8,2.8,1.4,4.3,1.8v6.1h8.4v-6.1c1.5-0.4,3-1,4.3-1.8l4.3,4.3l6-5.9L84.6,43c0.8-1.4,1.4-2.8,1.8-4.3
				C86.4,38.7,92.8,38.7,92.8,38.7z M66.2,34.5c0-2.3,1.9-4.2,4.2-4.2c2.3,0,4.2,1.9,4.2,4.2s-1.9,4.2-4.2,4.2S66.2,36.9,66.2,34.5z
				"/>
			<path class="st6" d="M70.4,47.1c-7,0-12.6-5.6-12.6-12.6s5.6-12.6,12.6-12.6S83,27.5,83,34.5S77.4,47.1,70.4,47.1z M70.4,24.7
				c-5.4,0-9.8,4.4-9.8,9.8s4.4,9.8,9.8,9.8s9.8-4.4,9.8-9.8C80.2,29.1,75.8,24.8,70.4,24.7z"/>
			<path class="st4" d="M17.6,89.9h68.8c0.8,0,1.5-0.7,1.5-1.5V50.7h-3.1V87H17.6c-2.5,0-4.6-2-4.6-4.4s2.1-4.4,4.6-4.4h3.1
				c0.8,0,1.5-0.7,1.5-1.5V33.3h24.5v-2.9H22.2V20.2c0-0.8-0.7-1.5-1.5-1.5h-3.1C13.4,18.7,10,22,10,26v56.7
				C9.9,86.7,13.4,89.9,17.6,89.9z M12.7,33.9v-5.6c0-2.3,1.9-4.2,4.2-4.2h1.4v51.8h-1.4c-1.5,0-3,0.5-4.2,1.4V33.9z"/>
			<path class="st4" d="M42.1,39.5H25.3c-0.8,0-1.4,0.6-1.4,1.4v11.2c0,0.8,0.6,1.4,1.4,1.4h16.8c0.8,0,1.4-0.6,1.4-1.4v-4.2h5.6
				v-2.8h-5.6v-4.2C43.5,40.2,42.9,39.5,42.1,39.5z M40.7,50.7h-14v-8.4h14V50.7z"/>
			<path class="st4" d="M56.1,78.7h16.8c0.8,0,1.4-0.6,1.4-1.4V66.1c0-0.8-0.6-1.4-1.4-1.4h-7v-8.4h-2.8v8.4h-7
				c-0.8,0-1.4,0.6-1.4,1.4v4.2H43.5v-4.2c0-0.8-0.6-1.4-1.4-1.4H25.3c-0.8,0-1.4,0.6-1.4,1.4v11.2c0,0.8,0.6,1.4,1.4,1.4h16.8
				c0.8,0,1.4-0.6,1.4-1.4v-4.2h11.2v4.2C54.7,78.1,55.4,78.7,56.1,78.7z M57.5,67.5h14v8.4h-14V67.5z M40.7,75.9h-14v-8.4h14V75.9z
				"/>
			<path class="st7" d="M70.4,21.9c-7,0-12.6,5.6-12.6,12.6s5.6,12.6,12.6,12.6S83,41.5,83,34.5C83,27.6,77.4,22,70.4,21.9z
				 M70.4,44.3c-5.4,0-9.8-4.4-9.8-9.8s4.4-9.8,9.8-9.8s9.8,4.4,9.8,9.8C80.2,40,75.8,44.3,70.4,44.3z"/>
			<path class="st4" d="M92.8,40.1c0.8,0,1.4-0.6,1.4-1.4v-8.4c0-0.8-0.6-1.4-1.4-1.4h-5.1c-0.3-0.9-0.7-1.8-1.1-2.7l3.6-3.6
				c0.3-0.3,0.4-0.6,0.4-1s-0.1-0.7-0.4-1l-5.9-5.9c-0.3-0.3-0.6-0.4-1-0.4s-0.7,0.1-1,0.4l-3.6,3.6c-0.9-0.4-1.8-0.8-2.7-1.1v-5.1
				c0-0.8-0.6-1.4-1.4-1.4h-8.4c-0.8,0-1.4,0.6-1.4,1.4v5.1c-0.9,0.3-1.8,0.7-2.7,1.1l-3.6-3.6c-0.3-0.3-0.6-0.4-1-0.4
				s-0.7,0.1-1,0.4l-6,5.9c-0.3,0.3-0.4,0.6-0.4,1s0.1,0.7,0.4,1l3.6,3.6c-0.4,0.9-0.8,1.8-1.1,2.7h-5c-0.8,0-1.4,0.6-1.4,1.4v8.4
				c0,0.8,0.6,1.4,1.4,1.4h5.1c0.3,0.9,0.7,1.8,1.1,2.7l-3.6,3.6c-0.3,0.3-0.4,0.6-0.4,1s0.1,0.7,0.4,1l5.9,5.9c0.5,0.5,1.4,0.5,2,0
				l3.6-3.6c0.9,0.4,1.8,0.8,2.7,1.1v5.1c0,0.8,0.6,1.4,1.4,1.4h8.4c0.8,0,1.4-0.6,1.4-1.4v-5.1c0.9-0.3,1.8-0.7,2.7-1.1l3.6,3.6
				c0.5,0.5,1.4,0.5,2,0l5.9-5.9c0.3-0.3,0.4-0.6,0.4-1s-0.1-0.7-0.4-1l-3.6-3.6c0.4-0.9,0.8-1.8,1.1-2.7H92.8z M85.3,38.4
				c-0.4,1.4-0.9,2.7-1.6,4c-0.3,0.6-0.2,1.2,0.2,1.7l3.4,3.3l-4,4L79.9,48c-0.4-0.4-1.1-0.5-1.7-0.2c-1.2,0.7-2.6,1.3-4,1.6
				c-0.6,0.2-1,0.7-1,1.4v4.7h-5.6v-4.7c0-0.6-0.4-1.2-1-1.4c-1.4-0.4-2.7-0.9-4-1.6c-0.5-0.3-1.2-0.2-1.7,0.2l-3.4,3.4l-4-4
				l3.4-3.3c0.5-0.4,0.5-1.1,0.2-1.7c-0.7-1.2-1.3-2.6-1.6-4c-0.2-0.6-0.7-1-1.4-1h-4.7v-5.6h4.7c0.6,0,1.2-0.4,1.4-1
				c0.4-1.4,0.9-2.7,1.6-4c0.3-0.6,0.2-1.2-0.2-1.7l-3.4-3.4l4-4l3.4,3.4c0.4,0.5,1.1,0.5,1.7,0.2c1.2-0.7,2.6-1.3,4-1.6
				c0.6-0.2,1-0.7,1-1.4v-4.7h5.6v4.7c0,0.6,0.4,1.2,1,1.4c1.4,0.4,2.7,0.9,4,1.6c0.6,0.3,1.2,0.2,1.7-0.2l3.4-3.4l4,4L83.9,25
				c-0.5,0.4-0.5,1.1-0.2,1.7c0.7,1.2,1.3,2.6,1.6,4c0.2,0.6,0.7,1,1.3,1h4.7v5.6h-4.7C86,37.3,85.5,37.8,85.3,38.4z"/>
			<path class="st8" d="M68.5,27.3L68.5,27.3c4-1,8.1,1.4,9.2,5.4l0,0c1,4-1.4,8.1-5.4,9.2l0,0c-4,1-8.1-1.4-9.2-5.4l0,0
				C62.1,32.4,64.5,28.3,68.5,27.3z"/>
		</g>
	</g>
</g>
</svg>
