<?xml version="1.0" encoding="utf-8"?>
<!-- Generator: Adobe Illustrator 25.0.0, SVG Export Plug-In . SVG Version: 6.00 Build 0)  -->
<svg version="1.1" xmlns="http://www.w3.org/2000/svg" xmlns:xlink="http://www.w3.org/1999/xlink" x="0px" y="0px"
	 viewBox="0 0 573 551" style="enable-background:new 0 0 573 551;" xml:space="preserve">
<style type="text/css">
	.st0{display:none;}
	.st1{display:inline;}
	.st2{fill:none;stroke:#FDFEFE;stroke-width:15;stroke-linecap:round;stroke-linejoin:round;stroke-miterlimit:10;}
	.st3{fill:#FFFFFF;}
	.st4{clip-path:url(#SVGID_2_);}
	
		.st5{fill:none;stroke:#FFFFFF;stroke-width:15;stroke-linecap:round;stroke-linejoin:round;stroke-miterlimit:10;stroke-dasharray:399,35,1000,0;}
	.st6{fill:none;stroke:#FFFFFF;stroke-width:15;stroke-linecap:round;stroke-linejoin:round;stroke-miterlimit:10;}
	
		.st7{fill:none;stroke:#FFFFFF;stroke-width:15;stroke-linecap:round;stroke-linejoin:round;stroke-miterlimit:10;stroke-dasharray:504,35,400,0;}
</style>
<g id="Layer_1" class="st0">
	<g class="st1">
		<path class="st2" d="M534.5,373.08V499c0,16.57-13.43,30-30,30h-437c-16.57,0-30-13.43-30-30V62c0-16.57,13.43-30,30-30h437
			c16.57,0,30,13.43,30,30v276.08 M161.1,122h373.4 M37.5,122h88.6"/>
		<circle class="st2" cx="82.5" cy="77" r="15"/>
		<circle class="st2" cx="142.5" cy="77" r="15"/>
		<circle class="st2" cx="202.5" cy="77" r="15"/>
		<path class="st2" d="M225.72,216.17l20.21-53.08c0.41-1.01,1.84-1.01,2.26,0l20.03,53.08 M232.03,202.95h30 M360.27,162.33v53.84
			 M389.23,163.01l-27.24,25.04l29.15,28.12 M331.41,167.86c0,0-9.66-8.12-21.05-4.69c-10.46,3.15-11.92,15.21-4.36,20.15
			c0,0,7.43,3.31,15.66,6.35c19.83,7.31,11.29,26.49-4.67,26.49c-7.99,0-14.7-3.5-18.76-7.98 M180.86,162.33h29.73 M195.66,164.05
			v52.12 M200.74,257.07H474.5 M200.74,287.07H399.5 M141.1,310.67h-33.6c-5.52,0-10-4.48-10-10v-33.61c0-5.52,4.48-10,10-10h33.6
			c5.52,0,10,4.48,10,10v33.61C151.1,306.19,146.63,310.67,141.1,310.67z M200.74,347.07H474.5 M200.74,377.07H399.5 M141.1,400.67
			h-33.6c-5.52,0-10-4.48-10-10v-33.61c0-5.52,4.48-10,10-10h33.6c5.52,0,10,4.48,10,10v33.61
			C151.1,396.19,146.63,400.67,141.1,400.67z M200.74,437.07H474.5 M200.74,467.07H399.5 M141.1,490.67h-33.6c-5.52,0-10-4.48-10-10
			v-33.61c0-5.52,4.48-10,10-10h33.6c5.52,0,10,4.48,10,10v33.61C151.1,486.19,146.63,490.67,141.1,490.67z"/>
	</g>
</g>
<g id="Layer_2" class="st0">
	<g class="st1">
		<g>
			<path class="st3" d="M96.34,202.84l64-64l11.32,11.31l-64,64L96.34,202.84z"/>
			<path class="st3" d="M414,536.5H62c-4.42,0-8-3.58-8-8v-432c0-2.12,0.84-4.16,2.34-5.66l64-64c1.5-1.5,3.53-2.34,5.66-2.34h288
				c4.42,0,8,3.58,8,8v496C422,532.92,418.42,536.5,414,536.5z M70,520.5h336v-480H129.31L70,99.81V520.5z"/>
			<path class="st3" d="M126,104.5H62v-16h56v-56h16v64C134,100.92,130.42,104.5,126,104.5z M166,216.5h-64c-4.42,0-8-3.58-8-8v-64
				c0-4.42,3.58-8,8-8h64c4.42,0,8,3.58,8,8v64C174,212.92,170.42,216.5,166,216.5z M110,200.5h48v-48h-48V200.5z M206,152.5h176v16
				H206V152.5z M190,184.5h192v16H190V184.5z M166,320.5h-64c-4.42,0-8-3.58-8-8v-64c0-4.42,3.58-8,8-8h64c4.42,0,8,3.58,8,8v64
				C174,316.92,170.42,320.5,166,320.5z M110,304.5h48v-48h-48V304.5z M206,256.5h176v16H206V256.5z M190,288.5h192v16H190V288.5z
				 M166,424.5h-64c-4.42,0-8-3.58-8-8v-64c0-4.42,3.58-8,8-8h64c4.42,0,8,3.58,8,8v64C174,420.92,170.42,424.5,166,424.5z
				 M110,408.5h48v-48h-48V408.5z M206,360.5h176v16H206V360.5z M190,392.5h192v16H190V392.5z M510,536.5h-48c-4.42,0-8-3.58-8-8
				v-304c0-4.42,3.58-8,8-8h48c4.42,0,8,3.58,8,8v304C518,532.92,514.42,536.5,510,536.5z M470,520.5h32v-288h-32V520.5z"/>
			<path class="st3" d="M462,440.5h48v16h-48V440.5z M502.5,227.31L486,183.28l-16.5,44l-14.99-5.6l24-64
				c1.54-4.14,6.15-6.24,10.29-4.7c2.17,0.81,3.89,2.53,4.7,4.7l24,64L502.5,227.31z"/>
		</g>
	</g>
</g>
<g id="Layer_3" class="st0">
	<g class="st1">
		<path class="st3" d="M354.38,297.45l-4.19-2.31c-2.47-1.28-3.89-3.96-3.56-6.73c0.76-5.25,0.76-10.58,0-15.82
			c-0.33-2.77,1.09-5.45,3.56-6.73l4.19-2.31c3.3-1.74,4.57-5.83,2.83-9.13c-0.06-0.11-0.12-0.21-0.18-0.31l-11.6-19.2
			c-2.1-3.33-6.44-4.44-9.88-2.53l-4.24,2.34c-2.64,1.4-5.85,1.14-8.23-0.67c-4.18-3.06-8.73-5.59-13.54-7.51
			c-2.75-0.99-4.62-3.56-4.71-6.48v-4.63c-0.09-3.89-3.31-6.98-7.2-6.91h-23.2c-3.89-0.07-7.11,3.02-7.2,6.91v4.63
			c-0.09,2.92-1.96,5.49-4.71,6.48c-4.81,1.92-9.36,4.45-13.54,7.51c-2.38,1.81-5.59,2.07-8.23,0.67l-4.24-2.34
			c-3.44-1.91-7.78-0.8-9.88,2.53l-11.6,19.2c-1.92,3.2-0.87,7.36,2.33,9.27c0.1,0.06,0.21,0.12,0.31,0.18l4.19,2.31
			c2.47,1.28,3.89,3.96,3.56,6.73c-0.76,5.25-0.76,10.58,0,15.82c0.33,2.77-1.09,5.45-3.56,6.73l-4.19,2.31
			c-3.3,1.74-4.57,5.83-2.82,9.13c0.06,0.11,0.12,0.21,0.18,0.31l11.6,19.2c2.1,3.33,6.44,4.44,9.88,2.53l4.24-2.34
			c2.64-1.4,5.85-1.14,8.23,0.67c4.18,3.06,8.73,5.59,13.54,7.51c2.75,0.99,4.62,3.56,4.71,6.48v4.63c0.09,3.89,3.31,6.98,7.2,6.91
			h23.2c3.89,0.07,7.11-3.02,7.2-6.91v-4.63c0.09-2.92,1.96-5.49,4.71-6.48c4.81-1.92,9.36-4.45,13.54-7.51
			c2.38-1.81,5.59-2.07,8.23-0.67l4.24,2.34c3.44,1.91,7.78,0.8,9.88-2.53l11.6-19.2c1.92-3.2,0.87-7.36-2.33-9.27
			C354.6,297.57,354.49,297.51,354.38,297.45z M286,307.5c-14.91,0-27-12.09-27-27s12.09-27,27-27s27,12.09,27,27l0,0
			C313,295.41,300.91,307.5,286,307.5z"/>
		<circle class="st3" cx="286" cy="96.5" r="64"/>
		<circle class="st3" cx="470" cy="280.5" r="64"/>
		<circle class="st3" cx="102" cy="280.5" r="64"/>
		<circle class="st3" cx="286" cy="464.5" r="64"/>
		<g>
			<path class="st3" d="M286,84.5L286,84.5c6.63,0,12,5.37,12,12l0,0c0,6.63-5.37,12-12,12l0,0c-6.63,0-12-5.37-12-12l0,0
				C274,89.87,279.37,84.5,286,84.5z"/>
			<path class="st3" d="M450,268.5L450,268.5c6.63,0,12,5.37,12,12l0,0c0,6.63-5.37,12-12,12l0,0c-6.63,0-12-5.37-12-12l0,0
				C438,273.87,443.37,268.5,450,268.5z"/>
			<path class="st3" d="M490,268.5L490,268.5c6.63,0,12,5.37,12,12l0,0c0,6.63-5.37,12-12,12l0,0c-6.63,0-12-5.37-12-12l0,0
				C478,273.87,483.37,268.5,490,268.5z"/>
			<path class="st3" d="M266,468.5L266,468.5c6.63,0,12,5.37,12,12l0,0c0,6.63-5.37,12-12,12l0,0c-6.63,0-12-5.37-12-12l0,0
				C254,473.87,259.37,468.5,266,468.5z"/>
			<path class="st3" d="M306,468.5L306,468.5c6.63,0,12,5.37,12,12l0,0c0,6.63-5.37,12-12,12l0,0c-6.63,0-12-5.37-12-12l0,0
				C294,473.87,299.37,468.5,306,468.5z"/>
			<path class="st3" d="M286,428.5L286,428.5c6.63,0,12,5.37,12,12l0,0c0,6.63-5.37,12-12,12l0,0c-6.63,0-12-5.37-12-12l0,0
				C274,433.87,279.37,428.5,286,428.5z"/>
			<path class="st3" d="M82,288.5L82,288.5c6.63,0,12,5.37,12,12l0,0c0,6.63-5.37,12-12,12l0,0c-6.63,0-12-5.37-12-12l0,0
				C70,293.87,75.37,288.5,82,288.5z"/>
			<path class="st3" d="M122,288.5L122,288.5c6.63,0,12,5.37,12,12l0,0c0,6.63-5.37,12-12,12l0,0c-6.63,0-12-5.37-12-12l0,0
				C110,293.87,115.37,288.5,122,288.5z"/>
			<path class="st3" d="M82,248.5L82,248.5c6.63,0,12,5.37,12,12l0,0c0,6.63-5.37,12-12,12l0,0c-6.63,0-12-5.37-12-12l0,0
				C70,253.87,75.37,248.5,82,248.5z"/>
			<path class="st3" d="M122,248.5L122,248.5c6.63,0,12,5.37,12,12l0,0c0,6.63-5.37,12-12,12l0,0c-6.63,0-12-5.37-12-12l0,0
				C110,253.87,115.37,248.5,122,248.5z"/>
		</g>
		<path class="st3" d="M94,136.5c0.03-22.08,17.92-39.97,40-40h20v24l42.66-32L154,56.5v24h-20c-30.91,0.04-55.96,25.09-56,56v56h16
			V136.5z M94,424.5v-12h24l-32-42.66L54,412.5h24v12c0.04,30.91,25.09,55.96,56,56h64v-16h-64C111.92,464.47,94.03,446.58,94,424.5
			z M478,424.5c-0.03,22.08-17.92,39.97-40,40h-20v-24l-42.66,32l42.66,32v-24h20c30.91-0.04,55.96-25.09,56-56v-56h-16V424.5z
			 M478,136.5v12h-24l32,42.66l32-42.66h-24v-12c-0.04-30.91-25.09-55.96-56-56h-64v16h64C460.08,96.53,477.97,114.42,478,136.5z"/>
	</g>
</g>
<g id="Layer_4" class="st0">
	<g class="st1">
		<g>
			<defs>
				<rect id="SVGID_1_" x="30" y="24.5" width="512" height="512"/>
			</defs>
			<clipPath id="SVGID_2_">
				<use xlink:href="#SVGID_1_"  style="overflow:visible;"/>
			</clipPath>
			<g transform="matrix(1.33333 0 0 -1.33333 0 682.667)" class="st4">
				<path class="st5" d="M314.2,115.25H88.76c-7.31,0-13.23,5.92-13.23,13.23v320.26c0,7.31,5.92,13.23,13.23,13.23H314.2
					c7.31,0,13.23-5.92,13.23-13.23V128.48C327.43,121.17,321.51,115.25,314.2,115.25z"/>
				<path class="st3" d="M294.55,401.9h-72.72c-2.89,0.03-5.2,2.41-5.17,5.3c0.03,2.84,2.33,5.14,5.17,5.17h72.72
					c2.89,0,5.23-2.34,5.23-5.23C299.79,404.24,297.44,401.9,294.55,401.9"/>
				<path class="st3" d="M294.55,377.42h-72.72c-2.89,0-5.23,2.34-5.23,5.23c0,2.89,2.34,5.23,5.23,5.23h72.72
					c2.89,0,5.23-2.34,5.23-5.23C299.79,379.76,297.44,377.42,294.55,377.42C294.55,377.42,294.55,377.42,294.55,377.42"/>
				<path class="st3" d="M294.55,352.94h-72.72c-2.89,0.03-5.2,2.41-5.17,5.3c0.03,2.84,2.33,5.14,5.17,5.17h72.72
					c2.89,0,5.23-2.34,5.23-5.23S297.44,352.94,294.55,352.94"/>
				<path class="st3" d="M294.55,216.35h-67.61c-2.89,0-5.23,2.34-5.23,5.23s2.34,5.23,5.23,5.23c0,0,0,0,0,0h67.61
					c2.89,0,5.23-2.34,5.23-5.23C299.79,218.69,297.44,216.35,294.55,216.35C294.55,216.35,294.55,216.35,294.55,216.35"/>
				<path class="st3" d="M181.14,267.4h-72.72c-2.89,0.03-5.2,2.41-5.17,5.3c0.03,2.84,2.33,5.14,5.17,5.17h72.72
					c2.89,0,5.23-2.34,5.23-5.23S184.03,267.4,181.14,267.4"/>
				<path class="st3" d="M181.14,291.88h-72.72c-2.89,0-5.23,2.34-5.23,5.23c0,2.89,2.34,5.23,5.23,5.23h72.72
					c2.89,0,5.23-2.34,5.23-5.23S184.03,291.88,181.14,291.88C181.14,291.88,181.14,291.88,181.14,291.88"/>
				<path class="st6" d="M151.79,433.48v-48.6h48.6C200.39,411.72,178.63,433.48,151.79,433.48z"/>
				<path class="st6" d="M151.79,433.48c-26.84,0-48.6-21.76-48.6-48.6c0-26.84,21.76-48.6,48.6-48.6s48.6,21.76,48.6,48.6h-48.6
					V433.48z"/>
				<path class="st6" d="M296.3,256.27h-87.37c-1.93,0-3.49,1.56-3.49,3.49c0,0,0,0,0,0v50.23c0,1.93,1.56,3.49,3.49,3.49
					c0,0,0,0,0,0h87.37c1.93,0,3.49-1.56,3.49-3.49c0,0,0,0,0,0v-50.23C299.79,257.83,298.22,256.27,296.3,256.27z"/>
				<path class="st6" d="M121.96,152.66h-15.28c-1.93,0-3.49,1.56-3.49,3.49v76.3c0,1.93,1.56,3.49,3.49,3.49c0,0,0,0,0,0h15.28
					c1.93,0,3.49-1.56,3.49-3.49l0,0v-76.3C125.44,154.22,123.88,152.66,121.96,152.66z"/>
				<path class="st6" d="M163.48,152.66H148.2c-1.93,0-3.49,1.56-3.49,3.49v56.28c0,1.93,1.56,3.49,3.49,3.49c0,0,0,0,0,0h15.28
					c1.93,0,3.49-1.56,3.49-3.49c0,0,0,0,0,0v-56.28C166.97,154.22,165.41,152.66,163.48,152.66z"/>
				<path class="st6" d="M205.01,152.66h-15.28c-1.93,0-3.49,1.56-3.49,3.49v31.34c0,1.93,1.56,3.49,3.49,3.49h15.28
					c1.93,0,3.49-1.56,3.49-3.49v-31.34C208.5,154.22,206.94,152.66,205.01,152.66z"/>
				<path class="st3" d="M294.55,190.64h-67.61c-2.89,0-5.23,2.34-5.23,5.23s2.34,5.23,5.23,5.23c0,0,0,0,0,0h67.61
					c2.89,0,5.23-2.34,5.23-5.23C299.79,192.98,297.44,190.64,294.55,190.64C294.55,190.64,294.55,190.64,294.55,190.64"/>
				<path class="st3" d="M294.55,164.93h-67.61c-2.89,0-5.23,2.34-5.23,5.23c0,2.89,2.34,5.23,5.23,5.23c0,0,0,0,0,0h67.61
					c2.89,0,5.23-2.34,5.23-5.23C299.79,167.27,297.44,164.93,294.55,164.93C294.55,164.93,294.55,164.93,294.55,164.93"/>
				<path class="st7" d="M340.24,488H114.8c-7.31,0-13.23-5.92-13.23-13.23v-12.8H314.2c7.31,0,13.23-5.92,13.23-13.23V141.28h12.8
					c7.31,0,13.23,5.92,13.23,13.23v320.26C353.46,482.08,347.54,488,340.24,488z"/>
			</g>
		</g>
	</g>
</g>
<g id="Layer_5">
	<g>
		<path class="st3" d="M399.45,526.26c18.18,0,32.97-14.79,32.97-32.97v-10.35h12.34c18.19,0,32.98-14.8,32.98-32.97V67.71
			c0-18.18-14.8-32.97-32.97-32.97H172.54c-18.18,0-32.97,14.79-32.97,32.97v10.37h-12.33c-18.18,0-32.97,14.79-32.97,32.97v382.24
			c0,18.18,14.8,32.97,32.97,32.97L399.45,526.26L399.45,526.26z M149.8,67.7c0.01-12.55,10.18-22.72,22.73-22.73h272.23
			c12.55,0.01,22.72,10.18,22.74,22.73v382.26c-0.01,12.55-10.18,22.72-22.73,22.73h-12.34V111.06c0-18.18-14.8-32.97-32.97-32.97
			H149.8L149.8,67.7z M104.51,493.29V111.05c0.01-12.55,10.18-22.72,22.73-22.73h272.2c12.55,0.01,22.72,10.18,22.73,22.73v382.24
			c-0.01,12.55-10.18,22.72-22.73,22.73H127.24C114.69,516.02,104.52,505.85,104.51,493.29L104.51,493.29z"/>
		<path class="st3" d="M141.76,302.13h63.64c1.7,0,3.29-0.84,4.24-2.25l10.23-15.17c12,7.54,25.89,11.55,40.07,11.56
			c41.87,0,75.93-34.06,75.93-75.93c0-24.29-11.47-46.84-30.65-61.11l10.87-16.12H377c2.83,0,5.12-2.29,5.12-5.12
			c0-2.83-2.29-5.12-5.12-5.12h-63.63c-1.7,0-3.3,0.85-4.25,2.26l-12.52,18.59c-11.23-6.16-23.84-9.38-36.65-9.36
			c-41.87,0-75.93,34.08-75.93,75.98c0,23.48,10.72,44.5,27.51,58.44l-8.85,13.12h-60.91c-2.83,0-5.12,2.29-5.12,5.12
			C136.64,299.84,138.94,302.13,141.76,302.13z M265.06,154.78c9.16,0.7,17.87,3.33,25.74,7.51l-7.36,10.93
			c-1.58,2.34-0.96,5.53,1.38,7.11c2.34,1.58,5.53,0.96,7.11-1.38l7.52-11.14c5.26,3.95,9.91,8.66,13.77,13.99l-48.15,29.42
			L265.06,154.78L265.06,154.78z M194.25,220.34c0-34.53,26.73-62.92,60.57-65.55v65.55c0,4.13,4.52,6.36,7.79,4.37l55.93-34.17
			c4.67,9.24,7.09,19.45,7.09,29.8c0,36.22-29.47,65.69-65.69,65.69c-12.6,0-24.34-3.62-34.35-9.8l9.74-14.44
			c1.57-2.35,0.94-5.53-1.41-7.1c-2.34-1.57-5.51-0.95-7.09,1.38l-9.53,14.14C203.22,258.15,194.25,240.28,194.25,220.34
			L194.25,220.34z M149.6,399.55h37.88c7.15-0.01,12.95-5.8,12.95-12.95v-26.91l10.82-7.51c2.35-1.58,2.97-4.76,1.4-7.1
			c-1.58-2.35-4.76-2.97-7.1-1.4c-0.04,0.03-0.09,0.06-0.13,0.09l-5.13,3.56c-0.72-6.54-6.23-11.49-12.81-11.51H149.6
			c-7.15,0.01-12.95,5.8-12.95,12.95v37.84c0.01,7.15,5.8,12.95,12.95,12.95L149.6,399.55z M146.88,348.77
			c0-1.5,1.22-2.71,2.71-2.71h37.88c1.5,0,2.71,1.21,2.71,2.71v5.57l-20.58,14.31l-3.17-4.1c-1.73-2.24-4.95-2.65-7.18-0.92
			c-2.24,1.73-2.65,4.95-0.92,7.18l6.14,7.94c1.67,2.16,4.73,2.63,6.97,1.08l18.74-13.02v19.79c0,1.5-1.23,2.71-2.72,2.71H149.6
			c-1.5,0-2.71-1.22-2.71-2.71V348.77z M237.68,353.8c0,2.83,2.29,5.12,5.12,5.12h142.84c2.83,0,5.12-2.29,5.12-5.12
			s-2.29-5.12-5.12-5.12H242.8C239.97,348.68,237.68,350.97,237.68,353.8z M242.8,386.68h85.95c2.83,0,5.12-2.29,5.12-5.12
			s-2.29-5.12-5.12-5.12H242.8c-2.83,0-5.12,2.29-5.12,5.12S239.97,386.68,242.8,386.68z M149.6,486.18h37.88
			c7.15-0.01,12.95-5.8,12.95-12.95V444.1l10.82-7.52c2.37-1.54,3.05-4.71,1.52-7.08c-1.54-2.37-4.71-3.05-7.08-1.52
			c-0.09,0.06-0.18,0.12-0.27,0.19l-5.49,3.82c-1.53-5.62-6.62-9.52-12.44-9.54H149.6c-7.15,0.01-12.95,5.8-12.95,12.95v37.84
			C136.65,480.39,142.45,486.18,149.6,486.18L149.6,486.18z M146.88,435.39c0-1.5,1.22-2.71,2.71-2.71h37.88
			c1.5,0,2.71,1.22,2.71,2.71v3.35l-20.58,14.31l-3.17-4.1c-1.73-2.24-4.95-2.65-7.18-0.92c-2.24,1.73-2.65,4.95-0.92,7.18l0,0
			l6.14,7.94c1.67,2.16,4.73,2.63,6.97,1.08l18.74-13.02v22.02c0,1.5-1.23,2.71-2.72,2.71H149.6c-1.5,0-2.71-1.22-2.71-2.71V435.39z
			 M385.64,435.32H242.8c-2.83,0-5.12,2.29-5.12,5.12s2.29,5.12,5.12,5.12h142.84c2.83,0,5.12-2.29,5.12-5.12
			S388.47,435.32,385.64,435.32z M328.75,463.07H242.8c-2.83,0-5.12,2.29-5.12,5.12s2.29,5.12,5.12,5.12h85.95
			c2.83,0,5.12-2.29,5.12-5.12S331.58,463.07,328.75,463.07z"/>
	</g>
</g>
</svg>
