<?xml version="1.0" encoding="utf-8"?>
<!-- Generator: Adobe Illustrator 25.0.0, SVG Export Plug-In . SVG Version: 6.00 Build 0)  -->
<svg version="1.1" id="Layer_1" xmlns="http://www.w3.org/2000/svg" xmlns:xlink="http://www.w3.org/1999/xlink" x="0px" y="0px"
	 viewBox="0 0 573 551" style="enable-background:new 0 0 573 551;" xml:space="preserve">
<style type="text/css">
	.st0{fill:none;stroke:#FDFEFE;stroke-width:15;stroke-linecap:round;stroke-linejoin:round;stroke-miterlimit:10;}
</style>
<g>
	<path class="st0" d="M534.5,373.08V499c0,16.57-13.43,30-30,30h-437c-16.57,0-30-13.43-30-30V62c0-16.57,13.43-30,30-30h437
		c16.57,0,30,13.43,30,30v276.08 M161.1,122h373.4 M37.5,122h88.6"/>
	<circle class="st0" cx="82.5" cy="77" r="15"/>
	<circle class="st0" cx="142.5" cy="77" r="15"/>
	<circle class="st0" cx="202.5" cy="77" r="15"/>
	<path class="st0" d="M225.72,216.17l20.21-53.08c0.41-1.01,1.84-1.01,2.26,0l20.03,53.08 M232.03,202.95h30 M360.27,162.33v53.84
		 M389.23,163.01l-27.24,25.04l29.15,28.12 M331.41,167.86c0,0-9.66-8.12-21.05-4.69c-10.46,3.15-11.92,15.21-4.36,20.15
		c0,0,7.43,3.31,15.66,6.35c19.83,7.31,11.29,26.49-4.67,26.49c-7.99,0-14.7-3.5-18.76-7.98 M180.86,162.33h29.73 M195.66,164.05
		v52.12 M200.74,257.07H474.5 M200.74,287.07H399.5 M141.1,310.67h-33.6c-5.52,0-10-4.48-10-10v-33.61c0-5.52,4.48-10,10-10h33.6
		c5.52,0,10,4.48,10,10v33.61C151.1,306.19,146.63,310.67,141.1,310.67z M200.74,347.07H474.5 M200.74,377.07H399.5 M141.1,400.67
		h-33.6c-5.52,0-10-4.48-10-10v-33.61c0-5.52,4.48-10,10-10h33.6c5.52,0,10,4.48,10,10v33.61
		C151.1,396.19,146.63,400.67,141.1,400.67z M200.74,437.07H474.5 M200.74,467.07H399.5 M141.1,490.67h-33.6c-5.52,0-10-4.48-10-10
		v-33.61c0-5.52,4.48-10,10-10h33.6c5.52,0,10,4.48,10,10v33.61C151.1,486.19,146.63,490.67,141.1,490.67z"/>
</g>
</svg>
