<?xml version="1.0" encoding="utf-8"?>
<!-- Generator: Adobe Illustrator 25.0.0, SVG Export Plug-In . SVG Version: 6.00 Build 0)  -->
<svg version="1.1" xmlns="http://www.w3.org/2000/svg" xmlns:xlink="http://www.w3.org/1999/xlink" x="0px" y="0px"
	 viewBox="0 0 573 551" style="enable-background:new 0 0 573 551;" xml:space="preserve">
<style type="text/css">
	.st0{display:none;}
	.st1{display:inline;}
	.st2{fill:none;stroke:#FDFEFE;stroke-width:15;stroke-linecap:round;stroke-linejoin:round;stroke-miterlimit:10;}
	.st3{fill:#FFFFFF;}
</style>
<g id="Layer_1" class="st0">
	<g class="st1">
		<path class="st2" d="M534.5,373.08V499c0,16.57-13.43,30-30,30h-437c-16.57,0-30-13.43-30-30V62c0-16.57,13.43-30,30-30h437
			c16.57,0,30,13.43,30,30v276.08 M161.1,122h373.4 M37.5,122h88.6"/>
		<circle class="st2" cx="82.5" cy="77" r="15"/>
		<circle class="st2" cx="142.5" cy="77" r="15"/>
		<circle class="st2" cx="202.5" cy="77" r="15"/>
		<path class="st2" d="M225.72,216.17l20.21-53.08c0.41-1.01,1.84-1.01,2.26,0l20.03,53.08 M232.03,202.95h30 M360.27,162.33v53.84
			 M389.23,163.01l-27.24,25.04l29.15,28.12 M331.41,167.86c0,0-9.66-8.12-21.05-4.69c-10.46,3.15-11.92,15.21-4.36,20.15
			c0,0,7.43,3.31,15.66,6.35c19.83,7.31,11.29,26.49-4.67,26.49c-7.99,0-14.7-3.5-18.76-7.98 M180.86,162.33h29.73 M195.66,164.05
			v52.12 M200.74,257.07H474.5 M200.74,287.07H399.5 M141.1,310.67h-33.6c-5.52,0-10-4.48-10-10v-33.61c0-5.52,4.48-10,10-10h33.6
			c5.52,0,10,4.48,10,10v33.61C151.1,306.19,146.63,310.67,141.1,310.67z M200.74,347.07H474.5 M200.74,377.07H399.5 M141.1,400.67
			h-33.6c-5.52,0-10-4.48-10-10v-33.61c0-5.52,4.48-10,10-10h33.6c5.52,0,10,4.48,10,10v33.61
			C151.1,396.19,146.63,400.67,141.1,400.67z M200.74,437.07H474.5 M200.74,467.07H399.5 M141.1,490.67h-33.6c-5.52,0-10-4.48-10-10
			v-33.61c0-5.52,4.48-10,10-10h33.6c5.52,0,10,4.48,10,10v33.61C151.1,486.19,146.63,490.67,141.1,490.67z"/>
	</g>
</g>
<g id="Layer_2" class="st0">
	<g class="st1">
		<g>
			<path class="st3" d="M96.34,202.84l64-64l11.32,11.31l-64,64L96.34,202.84z"/>
			<path class="st3" d="M414,536.5H62c-4.42,0-8-3.58-8-8v-432c0-2.12,0.84-4.16,2.34-5.66l64-64c1.5-1.5,3.53-2.34,5.66-2.34h288
				c4.42,0,8,3.58,8,8v496C422,532.92,418.42,536.5,414,536.5z M70,520.5h336v-480H129.31L70,99.81V520.5z"/>
			<path class="st3" d="M126,104.5H62v-16h56v-56h16v64C134,100.92,130.42,104.5,126,104.5z M166,216.5h-64c-4.42,0-8-3.58-8-8v-64
				c0-4.42,3.58-8,8-8h64c4.42,0,8,3.58,8,8v64C174,212.92,170.42,216.5,166,216.5z M110,200.5h48v-48h-48V200.5z M206,152.5h176v16
				H206V152.5z M190,184.5h192v16H190V184.5z M166,320.5h-64c-4.42,0-8-3.58-8-8v-64c0-4.42,3.58-8,8-8h64c4.42,0,8,3.58,8,8v64
				C174,316.92,170.42,320.5,166,320.5z M110,304.5h48v-48h-48V304.5z M206,256.5h176v16H206V256.5z M190,288.5h192v16H190V288.5z
				 M166,424.5h-64c-4.42,0-8-3.58-8-8v-64c0-4.42,3.58-8,8-8h64c4.42,0,8,3.58,8,8v64C174,420.92,170.42,424.5,166,424.5z
				 M110,408.5h48v-48h-48V408.5z M206,360.5h176v16H206V360.5z M190,392.5h192v16H190V392.5z M510,536.5h-48c-4.42,0-8-3.58-8-8
				v-304c0-4.42,3.58-8,8-8h48c4.42,0,8,3.58,8,8v304C518,532.92,514.42,536.5,510,536.5z M470,520.5h32v-288h-32V520.5z"/>
			<path class="st3" d="M462,440.5h48v16h-48V440.5z M502.5,227.31L486,183.28l-16.5,44l-14.99-5.6l24-64
				c1.54-4.14,6.15-6.24,10.29-4.7c2.17,0.81,3.89,2.53,4.7,4.7l24,64L502.5,227.31z"/>
		</g>
	</g>
</g>
<g id="Layer_3">
	<g>
		<path class="st3" d="M354.38,297.45l-4.19-2.31c-2.47-1.28-3.89-3.96-3.56-6.73c0.76-5.25,0.76-10.58,0-15.82
			c-0.33-2.77,1.09-5.45,3.56-6.73l4.19-2.31c3.3-1.74,4.57-5.83,2.83-9.13c-0.06-0.11-0.12-0.21-0.18-0.31l-11.6-19.2
			c-2.1-3.33-6.44-4.44-9.88-2.53l-4.24,2.34c-2.64,1.4-5.85,1.14-8.23-0.67c-4.18-3.06-8.73-5.59-13.54-7.51
			c-2.75-0.99-4.62-3.56-4.71-6.48v-4.63c-0.09-3.89-3.31-6.98-7.2-6.91h-23.2c-3.89-0.07-7.11,3.02-7.2,6.91v4.63
			c-0.09,2.92-1.96,5.49-4.71,6.48c-4.81,1.92-9.36,4.45-13.54,7.51c-2.38,1.81-5.59,2.07-8.23,0.67l-4.24-2.34
			c-3.44-1.91-7.78-0.8-9.88,2.53l-11.6,19.2c-1.92,3.2-0.87,7.36,2.33,9.27c0.1,0.06,0.21,0.12,0.31,0.18l4.19,2.31
			c2.47,1.28,3.89,3.96,3.56,6.73c-0.76,5.25-0.76,10.58,0,15.82c0.33,2.77-1.09,5.45-3.56,6.73l-4.19,2.31
			c-3.3,1.74-4.57,5.83-2.82,9.13c0.06,0.11,0.12,0.21,0.18,0.31l11.6,19.2c2.1,3.33,6.44,4.44,9.88,2.53l4.24-2.34
			c2.64-1.4,5.85-1.14,8.23,0.67c4.18,3.06,8.73,5.59,13.54,7.51c2.75,0.99,4.62,3.56,4.71,6.48v4.63c0.09,3.89,3.31,6.98,7.2,6.91
			h23.2c3.89,0.07,7.11-3.02,7.2-6.91v-4.63c0.09-2.92,1.96-5.49,4.71-6.48c4.81-1.92,9.36-4.45,13.54-7.51
			c2.38-1.81,5.59-2.07,8.23-0.67l4.24,2.34c3.44,1.91,7.78,0.8,9.88-2.53l11.6-19.2c1.92-3.2,0.87-7.36-2.33-9.27
			C354.6,297.57,354.49,297.51,354.38,297.45z M286,307.5c-14.91,0-27-12.09-27-27s12.09-27,27-27s27,12.09,27,27l0,0
			C313,295.41,300.91,307.5,286,307.5z"/>
		<circle class="st3" cx="286" cy="96.5" r="64"/>
		<circle class="st3" cx="470" cy="280.5" r="64"/>
		<circle class="st3" cx="102" cy="280.5" r="64"/>
		<circle class="st3" cx="286" cy="464.5" r="64"/>
		<g>
			<path class="st3" d="M286,84.5L286,84.5c6.63,0,12,5.37,12,12l0,0c0,6.63-5.37,12-12,12l0,0c-6.63,0-12-5.37-12-12l0,0
				C274,89.87,279.37,84.5,286,84.5z"/>
			<path class="st3" d="M450,268.5L450,268.5c6.63,0,12,5.37,12,12l0,0c0,6.63-5.37,12-12,12l0,0c-6.63,0-12-5.37-12-12l0,0
				C438,273.87,443.37,268.5,450,268.5z"/>
			<path class="st3" d="M490,268.5L490,268.5c6.63,0,12,5.37,12,12l0,0c0,6.63-5.37,12-12,12l0,0c-6.63,0-12-5.37-12-12l0,0
				C478,273.87,483.37,268.5,490,268.5z"/>
			<path class="st3" d="M266,468.5L266,468.5c6.63,0,12,5.37,12,12l0,0c0,6.63-5.37,12-12,12l0,0c-6.63,0-12-5.37-12-12l0,0
				C254,473.87,259.37,468.5,266,468.5z"/>
			<path class="st3" d="M306,468.5L306,468.5c6.63,0,12,5.37,12,12l0,0c0,6.63-5.37,12-12,12l0,0c-6.63,0-12-5.37-12-12l0,0
				C294,473.87,299.37,468.5,306,468.5z"/>
			<path class="st3" d="M286,428.5L286,428.5c6.63,0,12,5.37,12,12l0,0c0,6.63-5.37,12-12,12l0,0c-6.63,0-12-5.37-12-12l0,0
				C274,433.87,279.37,428.5,286,428.5z"/>
			<path class="st3" d="M82,288.5L82,288.5c6.63,0,12,5.37,12,12l0,0c0,6.63-5.37,12-12,12l0,0c-6.63,0-12-5.37-12-12l0,0
				C70,293.87,75.37,288.5,82,288.5z"/>
			<path class="st3" d="M122,288.5L122,288.5c6.63,0,12,5.37,12,12l0,0c0,6.63-5.37,12-12,12l0,0c-6.63,0-12-5.37-12-12l0,0
				C110,293.87,115.37,288.5,122,288.5z"/>
			<path class="st3" d="M82,248.5L82,248.5c6.63,0,12,5.37,12,12l0,0c0,6.63-5.37,12-12,12l0,0c-6.63,0-12-5.37-12-12l0,0
				C70,253.87,75.37,248.5,82,248.5z"/>
			<path class="st3" d="M122,248.5L122,248.5c6.63,0,12,5.37,12,12l0,0c0,6.63-5.37,12-12,12l0,0c-6.63,0-12-5.37-12-12l0,0
				C110,253.87,115.37,248.5,122,248.5z"/>
		</g>
		<path class="st3" d="M94,136.5c0.03-22.08,17.92-39.97,40-40h20v24l42.66-32L154,56.5v24h-20c-30.91,0.04-55.96,25.09-56,56v56h16
			V136.5z M94,424.5v-12h24l-32-42.66L54,412.5h24v12c0.04,30.91,25.09,55.96,56,56h64v-16h-64C111.92,464.47,94.03,446.58,94,424.5
			z M478,424.5c-0.03,22.08-17.92,39.97-40,40h-20v-24l-42.66,32l42.66,32v-24h20c30.91-0.04,55.96-25.09,56-56v-56h-16V424.5z
			 M478,136.5v12h-24l32,42.66l32-42.66h-24v-12c-0.04-30.91-25.09-55.96-56-56h-64v16h64C460.08,96.53,477.97,114.42,478,136.5z"/>
	</g>
</g>
</svg>
